<svg xmlns="http://www.w3.org/2000/svg" width="128" height="128" viewBox="0 0 128 128" fill="none">
  <circle cx="64" cy="64" r="52" stroke="#B8942F" stroke-width="5"/>
  <circle cx="64" cy="64" r="42" stroke="#D4B258" stroke-width="2" opacity="0.7"/>
  <g fill="#B8942F">
    <ellipse cx="64" cy="12" rx="6" ry="4"/>
    <ellipse cx="94" cy="22" rx="6" ry="4" transform="rotate(30 94 22)"/>
    <ellipse cx="112" cy="48" rx="6" ry="4" transform="rotate(60 112 48)"/>
    <ellipse cx="116" cy="78" rx="6" ry="4" transform="rotate(90 116 78)"/>
    <ellipse cx="106" cy="106" rx="6" ry="4" transform="rotate(120 106 106)"/>
    <ellipse cx="82" cy="116" rx="6" ry="4" transform="rotate(150 82 116)"/>
    <ellipse cx="54" cy="116" rx="6" ry="4" transform="rotate(180 54 116)"/>
    <ellipse cx="28" cy="102" rx="6" ry="4" transform="rotate(210 28 102)"/>
    <ellipse cx="12" cy="78" rx="6" ry="4" transform="rotate(240 12 78)"/>
    <ellipse cx="16" cy="48" rx="6" ry="4" transform="rotate(270 16 48)"/>
    <ellipse cx="34" cy="22" rx="6" ry="4" transform="rotate(300 34 22)"/>
  </g>
</svg>
