<?xml version="1.0" encoding="UTF-8" standalone="no"?>
<!DOCTYPE svg PUBLIC "-//W3C//DTD SVG 1.1//EN" "http://www.w3.org/Graphics/SVG/1.1/DTD/svg11.dtd">
<svg width="100%" height="100%" viewBox="0 0 29 29" version="1.1" xmlns="http://www.w3.org/2000/svg" xmlns:xlink="http://www.w3.org/1999/xlink" xml:space="preserve" xmlns:serif="http://www.serif.com/" style="fill-rule:evenodd;clip-rule:evenodd;stroke-linejoin:round;stroke-miterlimit:2;">
    <g id="パス-1" serif:id="パス 1" transform="matrix(1,0,0,1,-925.778,-38.9999)">
        <path d="M953.679,65.348L945.258,56.926C948.786,52.618 948.541,46.232 944.521,42.211C940.24,37.93 933.271,37.93 928.99,42.211C924.708,46.494 924.708,53.461 928.99,57.742C931.13,59.882 933.943,60.953 936.756,60.953C939.223,60.953 941.692,60.128 943.706,58.478L952.127,66.9C952.341,67.114 952.622,67.222 952.903,67.222C953.184,67.222 953.464,67.114 953.679,66.9C954.107,66.471 954.107,65.776 953.679,65.348ZM930.542,56.189C927.117,52.764 927.117,47.19 930.542,43.764C932.202,42.104 934.409,41.189 936.756,41.189C939.102,41.189 941.31,42.104 942.969,43.764C946.394,47.19 946.394,52.764 942.969,56.189C939.543,59.615 933.968,59.615 930.542,56.189Z" style="fill:white;"/>
    </g>
</svg>
