<?xml version="1.0" encoding="UTF-8" standalone="no"?>
<!DOCTYPE svg PUBLIC "-//W3C//DTD SVG 1.1//EN" "http://www.w3.org/Graphics/SVG/1.1/DTD/svg11.dtd">
<svg width="100%" height="100%" viewBox="0 0 388 147" version="1.1" xmlns="http://www.w3.org/2000/svg" xmlns:xlink="http://www.w3.org/1999/xlink" xml:space="preserve" xmlns:serif="http://www.serif.com/" style="fill-rule:evenodd;clip-rule:evenodd;stroke-linejoin:round;stroke-miterlimit:2;">
    <g id="グループ-333" serif:id="グループ 333" transform="matrix(1,0,0,1,-115,-252.606)">
        <path id="パス-310" serif:id="パス 310" d="M208.463,399.533L177.03,353.061L148.513,399.533L115.624,399.533L161.42,329.924L115,261.505L148.513,261.505L179.943,307.777L208.254,261.505L241.143,261.505L195.556,330.914L241.976,399.533L208.463,399.533Z" style="fill:rgb(48,45,44);fill-rule:nonzero;"/>
        <path id="パス-311" serif:id="パス 311" d="M255.71,371.452L255.71,349.699L323.778,257.152L357.71,257.152L357.71,347.326L376.027,347.326L376.027,371.452L357.71,371.452L357.71,399.533L328.566,399.533L328.566,371.452L255.71,371.452ZM330.441,286.815L287.767,347.326L330.441,347.326L330.441,286.815Z" style="fill:rgb(48,45,44);"/>
        <path id="パス-312" serif:id="パス 312" d="M403.603,271.986C412.272,259.065 426.674,252.606 446.796,252.606C466.915,252.606 481.313,259.065 489.989,271.986C498.658,284.906 503,302.771 503,325.573C503,348.514 498.658,366.507 489.989,379.56C481.313,392.613 466.915,399.139 446.796,399.139C426.674,399.139 412.272,392.613 403.603,379.56C394.93,366.507 390.592,348.514 390.592,325.573C390.592,302.771 394.93,284.906 403.603,271.986ZM472.295,300.955C470.975,294.3 468.34,288.861 464.385,284.641C460.431,280.421 454.566,278.314 446.796,278.314C439.022,278.314 433.162,280.421 429.207,284.641C425.252,288.861 422.614,294.3 421.297,300.955C419.977,307.614 419.318,315.82 419.318,325.573C419.318,335.594 419.945,344.002 421.192,350.789C422.44,357.577 425.078,363.048 429.102,367.201C433.127,371.354 439.022,373.431 446.796,373.431C454.566,373.431 460.462,371.354 464.49,367.201C468.515,363.048 471.149,357.577 472.4,350.789C473.65,344.002 474.274,335.594 474.274,325.573C474.274,315.82 473.612,307.614 472.295,300.955Z" style="fill:rgb(48,45,44);"/>
    </g>
</svg>
