<?xml version="1.0" encoding="UTF-8"?>
<svg xmlns="http://www.w3.org/2000/svg" version="1.1" viewBox="0 0 174.23 36.16">
  <defs>
    <style>
      .cls-1 {
        fill: #3e3a39;
      }
    </style>
  </defs>
  <!-- Generator: Adobe Illustrator 28.7.10, SVG Export Plug-In . SVG Version: 1.2.0 Build 236)  -->
  <g>
    <g id="_レイヤー_1" data-name="レイヤー_1">
      <g>
        <polygon class="cls-1" points="94.62 31.04 94.62 11.17 84.43 22.17 74.25 11.17 74.25 31.04 69.86 31.04 69.86 4.91 74.25 4.91 84.43 16 94.62 4.91 99 4.91 99 31.04 94.62 31.04"/>
        <path class="cls-1" d="M26.84,5.14v14.34c0,5.59-2.98,8.6-7.49,8.63-3.49.02-5.69-2.17-6.86-4.6l-4.07,1.7c1.53,3.29,5.18,7.04,10.9,7.05,6.61.02,11.98-3.37,11.98-12.88V5.14h-4.45Z"/>
        <path class="cls-1" d="M151.37,28.01c-5.42-.02-9.82-4.51-9.79-10.05,0-5.54,4.41-10.02,9.83-10.01,5.42.02,9.82,4.51,9.79,10.05,0,5.54-4.41,10.02-9.83,10.01M151.42,3.91c-7.97-.02-14.44,5.86-14.46,14.04-.01,8.18,6.43,14.08,14.4,14.1,7.97.02,14.44-5.86,14.46-14.04.02-8.18-6.43-14.08-14.4-14.1"/>
        <path class="cls-1" d="M118.27,28.01c-5.42-.02-9.82-4.51-9.79-10.05,0-5.54,4.41-10.02,9.83-10.01,5.42.02,9.82,4.51,9.79,10.05,0,5.54-4.41,10.02-9.83,10.01M118.32,3.91c-7.97-.02-14.44,5.86-14.46,14.04-.02,8.18,6.43,14.08,14.4,14.1,7.97.02,14.44-5.86,14.46-14.04.02-8.18-6.43-14.08-14.4-14.1"/>
        <path class="cls-1" d="M50.56,28.01c-5.42-.02-9.82-4.51-9.79-10.05,0-5.54,4.41-10.02,9.83-10.01,5.42.02,9.82,4.51,9.79,10.05,0,5.54-4.41,10.02-9.83,10.01M50.6,3.91c-7.97-.02-14.44,5.86-14.46,14.04-.02,8.18,6.43,14.08,14.4,14.1,7.97.02,14.44-5.86,14.46-14.04.02-8.18-6.43-14.08-14.4-14.1"/>
        <polygon class="cls-1" points="94.62 31.04 94.62 11.17 84.43 22.17 74.25 11.17 74.25 31.04 69.86 31.04 69.86 4.91 74.25 4.91 84.43 16 94.62 4.91 99 4.91 99 31.04 94.62 31.04"/>
        <path class="cls-1" d="M26.84,5.14v14.34c0,5.59-2.98,8.6-7.49,8.63-3.49.02-5.69-2.17-6.86-4.6l-4.07,1.7c1.53,3.29,5.18,7.04,10.9,7.05,6.61.02,11.98-3.37,11.98-12.88V5.14h-4.45Z"/>
        <path class="cls-1" d="M151.37,28.01c-5.42-.02-9.82-4.51-9.79-10.05,0-5.54,4.41-10.02,9.83-10.01,5.42.02,9.82,4.51,9.79,10.05,0,5.54-4.41,10.02-9.83,10.01M151.42,3.91c-7.97-.02-14.44,5.86-14.46,14.04-.01,8.18,6.43,14.08,14.4,14.1,7.97.02,14.44-5.86,14.46-14.04.02-8.18-6.43-14.08-14.4-14.1"/>
        <path class="cls-1" d="M118.27,28.01c-5.42-.02-9.82-4.51-9.79-10.05,0-5.54,4.41-10.02,9.83-10.01,5.42.02,9.82,4.51,9.79,10.05,0,5.54-4.41,10.02-9.83,10.01M118.32,3.91c-7.97-.02-14.44,5.86-14.46,14.04-.02,8.18,6.43,14.08,14.4,14.1,7.97.02,14.44-5.86,14.46-14.04.02-8.18-6.43-14.08-14.4-14.1"/>
        <path class="cls-1" d="M50.56,28.01c-5.42-.02-9.82-4.51-9.79-10.05,0-5.54,4.41-10.02,9.83-10.01,5.42.02,9.82,4.51,9.79,10.05,0,5.54-4.41,10.02-9.83,10.01M50.6,3.91c-7.97-.02-14.44,5.86-14.46,14.04-.02,8.18,6.43,14.08,14.4,14.1,7.97.02,14.44-5.86,14.46-14.04.02-8.18-6.43-14.08-14.4-14.1"/>
      </g>
    </g>
  </g>
</svg>